# xmcd
#
# Track frame offsets: 
#        150
#        14467
#        37622
#        57461
#        79899
#        99872
#        116129
#        132450
#        149841
#        166602
#        180245
#        199026
#        213907
#        228653
#        247817
#        269213
#        292519
#        310456
#        338560
#
# Disc length: 4790 seconds
#
# Revision: 0
# Processed by: cddbd v1.5.2PL0 Copyright (c) Steve Scherf et al.
# Submitted via: ExactAudioCopy v0.99pb5
#
DISCID=0a12b413
DTITLE=Eric Clapton - Greatest Hits CD1
DYEAR=2011
DGENRE=Blues
TTITLE0=After Midnight
TTITLE1=Let It Rain
TTITLE2=I Shot The Sheriff
TTITLE3=Let It Grow
TTITLE4=Knocking On Heaven's Door
TTITLE5=Hello Old Friend
TTITLE6=Cocaine
TTITLE7=Lay Down Sally
TTITLE8=Wonderfull Tonight
TTITLE9=Promises
TTITLE10=I Can't Stand It
TTITLE11=I've Got A Rock'n'Roll Heart
TTITLE12=Forewer Man
TTITLE13=It's In The Way That You Use It
TTITLE14=Pretending
TTITLE15=Bad Love
TTITLE16=Before You Accuse Me (Take A Look At Yourself)
TTITLE17=Running On Faith (unplugged)
TTITLE18=Layla (unplugged)
EXTD=
EXTT0=
EXTT1=
EXTT2=
EXTT3=
EXTT4=
EXTT5=
EXTT6=
EXTT7=
EXTT8=
EXTT9=
EXTT10=
EXTT11=
EXTT12=
EXTT13=
EXTT14=
EXTT15=
EXTT16=
EXTT17=
EXTT18=
PLAYORDER=
